<svg id="Capa_1" enable-background="new 0 0 512 512" height="512" viewBox="0 0 512 512" width="512" xmlns="http://www.w3.org/2000/svg"><g><path d="m378.377 301.683c-.796-4.063-4.729-6.71-8.804-5.915-38.9 7.632-78.719 11.344-118.317 11.021-36.432-.292-73.047-4.001-108.829-11.021-4.069-.797-8.007 1.852-8.804 5.915-.798 4.064 1.851 8.007 5.915 8.804 36.692 7.2 74.239 11.003 111.597 11.303 1.609.013 3.213.02 4.822.02 39.022 0 78.195-3.806 116.505-11.322 4.064-.798 6.713-4.739 5.915-8.805zm-24.578 48.89c-33.494 6.572-67.774 9.777-101.884 9.491-31.374-.253-62.904-3.446-93.714-9.491-4.074-.8-8.007 1.852-8.804 5.915-.798 4.064 1.851 8.007 5.915 8.804 31.72 6.225 64.181 9.512 96.481 9.772 1.39.011 2.778.017 4.168.017 33.74 0 67.605-3.29 100.726-9.789 4.064-.797 6.713-4.739 5.915-8.804-.795-4.064-4.735-6.712-8.803-5.915zm48.891-110.071c-.797-4.064-4.73-6.711-8.804-5.915-47.227 9.265-95.576 13.777-143.646 13.381-44.233-.355-88.688-4.858-132.127-13.381-4.069-.799-8.007 1.852-8.804 5.915-.798 4.064 1.851 8.007 5.915 8.804 44.35 8.702 89.734 13.299 134.895 13.662 1.942.016 3.884.023 5.826.023 47.173 0 94.521-4.6 140.83-13.686 4.065-.796 6.713-4.738 5.915-8.803zm7.09-205.245c-38.824 0-74.094 29.225-91.347 75.027-14.13-3.611-28.045-8.119-41.596-13.491-13.273-5.264-28.418-4.759-41.553 1.385-13.117 6.135-26.719 11.188-40.604 15.143-16.811-47.66-52.498-78.064-92.462-78.064-65.783 0-102.218 74.29-102.218 136.389 0 55.524 25.431 105.696 63.655 126.394 4.919 25.938 14.408 50.9 28.134 73.675 2.139 3.55 6.75 4.689 10.295 2.553 3.548-2.139 4.69-6.748 2.553-10.295-19.562-32.457-29.901-69.676-29.901-107.634v-32.439c0-10.906 4.283-21.121 12.06-28.763 7.598-7.465 17.591-11.55 28.211-11.55.243 0 .486.002.729.007 21.692.381 43.404-1.708 64.515-6.21 21.101-4.498 41.755-11.436 61.391-20.62 9.404-4.399 20.221-4.775 29.669-1.028 22.035 8.736 45.017 15.301 68.306 19.512 4.081.74 7.978-1.969 8.715-6.045s-1.97-7.979-6.045-8.715c-22.314-4.035-44.334-10.325-65.446-18.695-13.275-5.265-28.421-4.759-41.554 1.385-18.605 8.702-38.174 15.275-58.163 19.537-19.997 4.264-40.551 6.25-61.123 5.882-15.706-.281-30.508 5.979-41.264 17.438v-7.135c0-10.906 4.283-21.12 12.061-28.762 7.757-7.622 18.089-11.734 28.939-11.544 21.714.38 43.405-1.708 64.516-6.209 21.101-4.499 41.755-11.438 61.39-20.62 9.409-4.4 20.221-4.775 29.669-1.029 23.097 9.157 47.188 15.918 71.675 20.104 17.98 3.074 36.354 4.78 54.612 5.071 21.873.349 39.668 18.376 39.668 40.187v7.221c-10.324-10.965-24.342-17.165-39.429-17.405-7.244-.115-14.576-.466-21.793-1.041-4.162-.318-7.742 2.753-8.072 6.881-.329 4.129 2.752 7.743 6.881 8.072 7.532.6 15.185.966 22.745 1.086 21.873.349 39.668 18.376 39.668 40.187v35.24c0 46.715-15.943 92.633-44.894 129.296-28.95 36.662-69.919 62.819-115.36 73.652-13.746 3.277-28.275 3.277-42.021 0-43.46-10.36-81.713-33.83-110.624-67.87-2.683-3.155-7.415-3.542-10.572-.861-3.157 2.682-3.542 7.415-.861 10.572 30.991 36.488 71.995 61.645 118.579 72.751 16.022 3.82 32.957 3.82 48.979 0 48.708-11.612 92.623-39.65 123.654-78.948 22.329-28.278 37.439-61.694 44.157-96.868 38.245-20.683 63.696-70.871 63.696-126.417 0-61.804-36.465-136.389-102.22-136.389zm-232.657 82.459c-19.998 4.264-40.552 6.247-61.124 5.881-14.938-.243-29.053 5.364-39.717 15.842-10.67 10.485-16.547 24.499-16.547 39.462v77.438c0 7.403.372 14.78 1.098 22.105-27.882-20.986-45.833-61.805-45.833-106.798 0-66.935 39.127-121.39 87.22-121.39 33.112 0 63.053 25.954 77.872 66.781-.99.224-1.977.467-2.969.679zm274.022 160.745c.737-7.336 1.12-14.719 1.12-22.122v-80.24c0-14.597-5.648-28.355-15.905-38.741-10.242-10.371-23.924-16.211-38.523-16.443-17.493-.279-35.098-1.914-52.324-4.858-4.125-.705-8.24-1.492-12.341-2.349 15.234-38.813 44.655-63.45 76.61-63.45 48.093 0 87.22 54.455 87.22 121.39-.002 45.003-17.962 85.832-45.857 106.813z"/></g></svg>