<svg id="Capa_1" enable-background="new 0 0 512 512" height="512" viewBox="0 0 512 512" width="512" xmlns="http://www.w3.org/2000/svg"><g><path d="m472.436 164.331h-329.178v-17.064h.516c8.556 0 15.516-6.96 15.516-15.516v-40.598h144.806c12.976 0 23.532-10.557 23.532-23.532s-10.557-23.532-23.532-23.532h-248.5c-21.816 0-39.564 17.749-39.564 39.564v48.097c0 8.556 6.96 15.516 15.516 15.516h.516v17.064h-.516c-17.396.001-31.548 14.153-31.548 31.549v264.532c0 4.142 3.358 7.5 7.5 7.5h144.291c4.142 0 7.5-3.358 7.5-7.5v-176.354c0-22.385 18.211-40.597 40.597-40.597h200.919v16.549c0 8.556 6.96 15.516 15.516 15.516h64.129c8.556 0 15.516-6.96 15.516-15.516v-16.549h.516c8.556 0 15.516-6.96 15.516-15.516v-24.048c0-21.817-17.749-39.565-39.564-39.565zm-425.372-17.065h40.601c4.142 0 7.5-3.358 7.5-7.5s-3.358-7.5-7.5-7.5h-56.117c-.285 0-.516-.231-.516-.516v-48.097c0-13.545 11.02-24.564 24.564-24.564h248.5c4.705 0 8.532 3.828 8.532 8.532s-3.828 8.532-8.532 8.532h-152.305c-4.142 0-7.5 3.358-7.5 7.5v48.097c0 .285-.231.516-.516.516h-24.05c-4.142 0-7.5 3.358-7.5 7.5s3.358 7.5 7.5 7.5h8.534v17.064h-81.195zm449.936 80.677c0 .285-.231.516-.516.516h-40.082c-4.142 0-7.5 3.358-7.5 7.5s3.358 7.5 7.5 7.5h24.566v16.549c0 .285-.231.516-.516.516h-64.129c-.285 0-.516-.231-.516-.516v-16.549h8.53c4.142 0 7.5-3.358 7.5-7.5s-3.358-7.5-7.5-7.5h-224.45c-30.656 0-55.597 24.941-55.597 55.597v168.854h-129.29v-257.031c0-9.125 7.423-16.548 16.548-16.548h440.887c13.545 0 24.564 11.02 24.564 24.564v24.048z"/><path d="m448.387 292.589c-4.142 0-7.5 3.358-7.5 7.5v16.032c0 4.142 3.358 7.5 7.5 7.5s7.5-3.358 7.5-7.5v-16.032c0-4.142-3.358-7.5-7.5-7.5z"/><path d="m448.387 388.782c-4.142 0-7.5 3.358-7.5 7.5v16.032c0 4.142 3.358 7.5 7.5 7.5s7.5-3.358 7.5-7.5v-16.032c0-4.142-3.358-7.5-7.5-7.5z"/><path d="m448.387 340.686c-4.142 0-7.5 3.358-7.5 7.5v16.032c0 4.142 3.358 7.5 7.5 7.5s7.5-3.358 7.5-7.5v-16.032c0-4.143-3.358-7.5-7.5-7.5z"/><path d="m448.387 436.879c-4.142 0-7.5 3.358-7.5 7.5v16.032c0 4.142 3.358 7.5 7.5 7.5s7.5-3.358 7.5-7.5v-16.032c0-4.142-3.358-7.5-7.5-7.5z"/><path d="m482.724 323.511c4.123-.4 7.141-4.066 6.741-8.189l-1.548-15.957c-.399-4.123-4.062-7.144-8.189-6.741-4.123.4-7.141 4.066-6.741 8.189l1.548 15.957c.376 3.876 3.64 6.776 7.456 6.776.242 0 .487-.011.733-.035z"/><path d="m492.012 419.255c4.123-.4 7.141-4.066 6.741-8.189l-1.548-15.958c-.4-4.123-4.063-7.142-8.189-6.741-4.123.4-7.141 4.066-6.741 8.189l1.548 15.958c.376 3.876 3.64 6.776 7.456 6.776.242.001.487-.011.733-.035z"/><path d="m487.368 371.383c4.123-.4 7.141-4.066 6.741-8.189l-1.548-15.957c-.4-4.123-4.066-7.139-8.189-6.741-4.123.4-7.141 4.066-6.741 8.189l1.548 15.957c.376 3.877 3.64 6.776 7.456 6.776.242 0 .487-.011.733-.035z"/><path d="m501.849 442.98c-.4-4.123-4.067-7.138-8.189-6.741-4.123.4-7.141 4.066-6.741 8.189l1.548 15.958c.376 3.877 3.64 6.776 7.456 6.776.242 0 .487-.012.733-.036 4.123-.4 7.141-4.066 6.741-8.189z"/><path d="m417.047 292.624c-4.124-.4-7.789 2.618-8.189 6.741l-1.548 15.957c-.4 4.123 2.618 7.789 6.741 8.189.246.024.491.036.733.036 3.816 0 7.08-2.9 7.456-6.776l1.548-15.957c.4-4.124-2.618-7.79-6.741-8.19z"/><path d="m407.758 388.368c-4.121-.402-7.789 2.618-8.189 6.741l-1.548 15.958c-.4 4.123 2.618 7.789 6.741 8.189.246.024.491.036.733.036 3.816 0 7.08-2.9 7.456-6.776l1.548-15.958c.4-4.124-2.618-7.79-6.741-8.19z"/><path d="m412.402 340.496c-4.134-.401-7.789 2.618-8.189 6.741l-1.548 15.957c-.4 4.123 2.618 7.789 6.741 8.189.247.024.491.036.733.036 3.816 0 7.08-2.9 7.456-6.776l1.548-15.957c.4-4.124-2.618-7.79-6.741-8.19z"/><path d="m403.114 436.24c-4.132-.403-7.789 2.618-8.189 6.741l-1.548 15.958c-.4 4.123 2.618 7.789 6.741 8.189.247.024.491.036.733.036 3.816 0 7.08-2.9 7.456-6.776l1.548-15.958c.399-4.124-2.619-7.79-6.741-8.19z"/></g></svg>